<svg width="400" height="607" viewBox="0 0 400 607" fill="none" xmlns="http://www.w3.org/2000/svg">
<mask id="mask0_26_56" style="mask-type:alpha" maskUnits="userSpaceOnUse" x="0" y="0" width="400" height="607">
<rect y="0.52417" width="400" height="605.952" rx="16" fill="url(#paint0_linear_26_56)"/>
<rect y="0.52417" width="400" height="605.952" rx="16" stroke="#19182B"/>
</mask>
<g mask="url(#mask0_26_56)">
<rect y="0.52417" width="400" height="605.952" rx="16" fill="url(#paint1_linear_26_56)"/>
<rect y="0.52417" width="400" height="605.952" rx="16" stroke="#19182B"/>
<g filter="url(#filter0_d_26_56)">
<path d="M-192 242.7C-192 228.027 -180.359 216.133 -166 216.133H215C229.359 216.133 241 228.027 241 242.7V484.877C241 499.55 229.359 511.445 215 511.445H-166C-180.359 511.445 -192 499.55 -192 484.877V242.7Z" fill="#242742"/>
</g>
<g filter="url(#filter1_d_26_56)">
<path d="M-176 242.7C-176 236.493 -171.075 231.46 -165 231.46H214C220.075 231.46 225 236.493 225 242.7V484.877C225 491.085 220.075 496.117 214 496.117H-165C-171.075 496.117 -176 491.085 -176 484.877V242.7Z" fill="url(#paint2_linear_26_56)"/>
</g>
<mask id="mask1_26_56" style="mask-type:alpha" maskUnits="userSpaceOnUse" x="-176" y="231" width="401" height="266">
<path d="M-176 242.7C-176 236.493 -171.075 231.46 -165 231.46H214C220.075 231.46 225 236.493 225 242.7V484.877C225 491.085 220.075 496.117 214 496.117H-165C-171.075 496.117 -176 491.085 -176 484.877V242.7Z" fill="url(#paint3_linear_26_56)"/>
</mask>
<g mask="url(#mask1_26_56)">
<ellipse cx="214" cy="480.789" rx="158" ry="161.451" fill="url(#paint4_linear_26_56)"/>
<circle cx="159.735" cy="159.735" r="159.735" transform="matrix(-0.699427 -0.714704 0.699427 -0.714704 -39.5542 424.477)" fill="url(#paint5_linear_26_56)"/>
</g>
<g filter="url(#filter2_d_26_56)">
<path d="M129 129.276C129 123.068 133.925 118.036 140 118.036H551C557.075 118.036 562 123.068 562 129.276V363.278C562 369.485 557.075 374.518 551 374.518H140C133.925 374.518 129 369.485 129 363.278V129.276Z" fill="url(#paint6_linear_26_56)"/>
</g>
<path d="M129 129.276C129 123.068 133.925 118.036 140 118.036H225V374.518H140C133.925 374.518 129 369.485 129 363.278V129.276Z" fill="url(#paint7_linear_26_56)"/>
<path d="M143 169.639C143 167.664 144.567 166.062 146.5 166.062H207.5C209.433 166.062 211 167.664 211 169.639C211 171.614 209.433 173.215 207.5 173.215H146.5C144.567 173.215 143 171.614 143 169.639Z" fill="#BABBDB"/>
<path d="M143 190.076C143 188.1 144.567 186.499 146.5 186.499H200.5C202.433 186.499 204 188.1 204 190.076C204 192.051 202.433 193.652 200.5 193.652H146.5C144.567 193.652 143 192.051 143 190.076Z" fill="#BABBDB"/>
<path d="M143 210.512C143 208.537 144.567 206.936 146.5 206.936H207.5C209.433 206.936 211 208.537 211 210.512C211 212.488 209.433 214.089 207.5 214.089H146.5C144.567 214.089 143 212.488 143 210.512Z" fill="#BABBDB"/>
<path d="M143 230.949C143 228.974 144.567 227.373 146.5 227.373H185.5C187.433 227.373 189 228.974 189 230.949C189 232.924 187.433 234.526 185.5 234.526H146.5C144.567 234.526 143 232.924 143 230.949Z" fill="#BABBDB"/>
<path d="M129 129.276C129 123.068 133.925 118.036 140 118.036H551C557.075 118.036 562 123.068 562 129.276V149.713H129V129.276Z" fill="#242742"/>
<ellipse cx="151.5" cy="133.874" rx="6.5" ry="6.64197" fill="#FF6464"/>
<ellipse cx="173.5" cy="133.874" rx="6.5" ry="6.64197" fill="#FF9255"/>
<ellipse cx="195.5" cy="133.874" rx="6.5" ry="6.64197" fill="#6BD5A8"/>
<path d="M246 99.6427C246 97.3853 247.791 95.5554 250 95.5554H340C342.209 95.5554 344 97.3853 344 99.6427V224.307C344 226.565 342.209 228.395 340 228.395H250C247.791 228.395 246 226.565 246 224.307V99.6427Z" fill="white"/>
<mask id="mask2_26_56" style="mask-type:alpha" maskUnits="userSpaceOnUse" x="246" y="95" width="98" height="134">
<path d="M246 99.6427C246 97.3853 247.791 95.5554 250 95.5554H340C342.209 95.5554 344 97.3853 344 99.6427V224.307C344 226.565 342.209 228.395 340 228.395H250C247.791 228.395 246 226.565 246 224.307V99.6427Z" fill="white"/>
</mask>
<g mask="url(#mask2_26_56)">
<path fill-rule="evenodd" clip-rule="evenodd" d="M354.121 125.064C355.293 126.261 355.293 128.202 354.122 129.399L328.847 155.243C324.499 159.688 317.446 159.688 313.098 155.243C311.094 153.193 307.842 153.193 305.838 155.243L288.406 173.065C285.021 176.527 279.53 176.527 276.144 173.065C275.102 172 273.412 172 272.37 173.065L240.122 206.038C238.951 207.235 237.051 207.236 235.879 206.039C234.707 204.842 234.707 202.901 235.878 201.704L268.126 168.731C271.511 165.27 277.002 165.27 280.388 168.731C281.43 169.797 283.12 169.797 284.162 168.731L301.594 150.909C305.942 146.463 312.994 146.463 317.342 150.909C319.347 152.958 322.598 152.958 324.603 150.909L349.878 125.065C351.049 123.868 352.949 123.867 354.121 125.064Z" fill="url(#paint8_linear_26_56)"/>
</g>
<path d="M295 248.832C295 246.574 296.791 244.744 299 244.744H419C421.209 244.744 423 246.574 423 248.832V395.977C423 398.234 421.209 400.064 419 400.064H299C296.791 400.064 295 398.234 295 395.977V248.832Z" fill="white"/>
<path fill-rule="evenodd" clip-rule="evenodd" d="M359.5 355.103C377.449 355.103 392 340.234 392 321.893C392 303.552 377.449 288.683 359.5 288.683C341.551 288.683 327 303.552 327 321.893C327 340.234 341.551 355.103 359.5 355.103ZM359.5 369.409C385.181 369.409 406 348.135 406 321.893C406 295.651 385.181 274.378 359.5 274.378C333.819 274.378 313 295.651 313 321.893C313 348.135 333.819 369.409 359.5 369.409Z" fill="url(#paint9_linear_26_56)"/>
<path d="M342.609 317.007C342.609 319.328 343.198 321.164 344.375 322.516C345.552 323.857 347.156 324.528 349.188 324.528C351.073 324.528 352.547 323.841 353.609 322.468C354.682 321.095 355.219 319.381 355.219 317.327H354.047C354.047 318.498 353.729 319.429 353.094 320.121C352.458 320.813 351.667 321.159 350.719 321.159C349.708 321.159 348.958 320.813 348.469 320.121C347.979 319.418 347.734 318.391 347.734 317.039C347.734 315.496 347.979 314.389 348.469 313.718C348.969 313.037 349.708 312.697 350.688 312.697C351.74 312.697 352.557 313.138 353.141 314.022C353.724 314.905 354.016 316.486 354.016 318.764L354.156 319.402C354.156 322.777 353.432 325.172 351.984 326.587C350.536 328.003 348.49 328.705 345.844 328.695H345.141V332.75H345.953C350.203 332.708 353.448 331.531 355.688 329.222C357.938 326.901 359.062 323.777 359.062 319.849V319.019C359.062 315.485 358.286 312.931 356.734 311.355C355.182 309.769 353.177 308.976 350.719 308.976C348.25 308.976 346.281 309.706 344.812 311.164C343.344 312.622 342.609 314.57 342.609 317.007Z" fill="#242742"/>
<path d="M369.922 332.622H374.75V309.376H370.234L360.125 324.256V327.769H377.266V323.793H372.328L371.516 323.873H365.016L369.844 316.145H370V325.949L369.922 326.507V332.622Z" fill="#242742"/>
</g>
<defs>
<filter id="filter0_d_26_56" x="-224" y="208.133" width="497" height="359.312" filterUnits="userSpaceOnUse" color-interpolation-filters="sRGB">
<feFlood flood-opacity="0" result="BackgroundImageFix"/>
<feColorMatrix in="SourceAlpha" type="matrix" values="0 0 0 0 0 0 0 0 0 0 0 0 0 0 0 0 0 0 127 0" result="hardAlpha"/>
<feOffset dy="24"/>
<feGaussianBlur stdDeviation="16"/>
<feComposite in2="hardAlpha" operator="out"/>
<feColorMatrix type="matrix" values="0 0 0 0 0 0 0 0 0 0 0 0 0 0 0 0 0 0 0.1 0"/>
<feBlend mode="normal" in2="BackgroundImageFix" result="effect1_dropShadow_26_56"/>
<feBlend mode="normal" in="SourceGraphic" in2="effect1_dropShadow_26_56" result="shape"/>
</filter>
<filter id="filter1_d_26_56" x="-208" y="223.46" width="465" height="328.657" filterUnits="userSpaceOnUse" color-interpolation-filters="sRGB">
<feFlood flood-opacity="0" result="BackgroundImageFix"/>
<feColorMatrix in="SourceAlpha" type="matrix" values="0 0 0 0 0 0 0 0 0 0 0 0 0 0 0 0 0 0 127 0" result="hardAlpha"/>
<feOffset dy="24"/>
<feGaussianBlur stdDeviation="16"/>
<feComposite in2="hardAlpha" operator="out"/>
<feColorMatrix type="matrix" values="0 0 0 0 0 0 0 0 0 0 0 0 0 0 0 0 0 0 0.1 0"/>
<feBlend mode="normal" in2="BackgroundImageFix" result="effect1_dropShadow_26_56"/>
<feBlend mode="normal" in="SourceGraphic" in2="effect1_dropShadow_26_56" result="shape"/>
</filter>
<filter id="filter2_d_26_56" x="97" y="110.036" width="497" height="320.482" filterUnits="userSpaceOnUse" color-interpolation-filters="sRGB">
<feFlood flood-opacity="0" result="BackgroundImageFix"/>
<feColorMatrix in="SourceAlpha" type="matrix" values="0 0 0 0 0 0 0 0 0 0 0 0 0 0 0 0 0 0 127 0" result="hardAlpha"/>
<feOffset dy="24"/>
<feGaussianBlur stdDeviation="16"/>
<feComposite in2="hardAlpha" operator="out"/>
<feColorMatrix type="matrix" values="0 0 0 0 0 0 0 0 0 0 0 0 0 0 0 0 0 0 0.1 0"/>
<feBlend mode="normal" in2="BackgroundImageFix" result="effect1_dropShadow_26_56"/>
<feBlend mode="normal" in="SourceGraphic" in2="effect1_dropShadow_26_56" result="shape"/>
</filter>
<linearGradient id="paint0_linear_26_56" x1="400" y1="0.524137" x2="-11.9745" y2="598.222" gradientUnits="userSpaceOnUse">
<stop stop-color="#FF6A3A"/>
<stop offset="1" stop-color="#FF527B"/>
</linearGradient>
<linearGradient id="paint1_linear_26_56" x1="400" y1="0.524137" x2="-11.9745" y2="598.222" gradientUnits="userSpaceOnUse">
<stop stop-color="#FF6A3A"/>
<stop offset="1" stop-color="#FF527B"/>
</linearGradient>
<linearGradient id="paint2_linear_26_56" x1="-86.5" y1="227.373" x2="227.092" y2="489.425" gradientUnits="userSpaceOnUse">
<stop stop-color="#FF3E83"/>
<stop offset="1" stop-color="#FF9F2E"/>
</linearGradient>
<linearGradient id="paint3_linear_26_56" x1="-86.5" y1="227.373" x2="227.092" y2="489.425" gradientUnits="userSpaceOnUse">
<stop stop-color="#FF3E83"/>
<stop offset="1" stop-color="#FF9F2E"/>
</linearGradient>
<linearGradient id="paint4_linear_26_56" x1="214" y1="319.339" x2="214" y2="642.24" gradientUnits="userSpaceOnUse">
<stop stop-color="#FFB443"/>
<stop offset="1" stop-color="#FF5B64" stop-opacity="0"/>
</linearGradient>
<linearGradient id="paint5_linear_26_56" x1="159.735" y1="0" x2="159.735" y2="319.469" gradientUnits="userSpaceOnUse">
<stop stop-color="#FFB443"/>
<stop offset="1" stop-color="#FF5B64" stop-opacity="0"/>
</linearGradient>
<linearGradient id="paint6_linear_26_56" x1="345.5" y1="118.036" x2="345.5" y2="374.518" gradientUnits="userSpaceOnUse">
<stop stop-color="#F8F8F8"/>
<stop offset="1" stop-color="#EEEEEE"/>
</linearGradient>
<linearGradient id="paint7_linear_26_56" x1="177" y1="118.036" x2="177" y2="374.518" gradientUnits="userSpaceOnUse">
<stop stop-color="#CACBE8"/>
<stop offset="1" stop-color="#EEEEEE"/>
<stop offset="1" stop-color="#CACBE8"/>
</linearGradient>
<linearGradient id="paint8_linear_26_56" x1="352.349" y1="123.668" x2="242.591" y2="202.965" gradientUnits="userSpaceOnUse">
<stop stop-color="#FF9049"/>
<stop offset="1" stop-color="#FF5E5E"/>
</linearGradient>
<linearGradient id="paint9_linear_26_56" x1="359.5" y1="274.378" x2="359.5" y2="369.409" gradientUnits="userSpaceOnUse">
<stop stop-color="#FF6A3D"/>
<stop offset="1" stop-color="#FF5B66"/>
</linearGradient>
</defs>
</svg>
